<svg width="16" height="16" viewBox="0 0 16 16" fill="none" xmlns="http://www.w3.org/2000/svg">
<path d="M8.00134 14C9.30996 13.9997 10.5826 13.5716 11.6253 12.7809C12.6681 11.9902 13.4237 10.8803 13.7771 9.62027C14.1305 8.36026 14.0622 7.01927 13.5828 5.80166C13.1033 4.58404 12.2389 3.55655 11.1213 2.87579C10.0037 2.19503 8.69414 1.89831 7.39226 2.03087C6.09037 2.16342 4.86751 2.71796 3.91003 3.61C2.95256 4.50204 2.31297 5.68265 2.08874 6.97191C1.86451 8.26118 2.06794 9.5884 2.66801 10.7513L2.00135 14L5.25001 13.3333C6.07401 13.7593 7.01001 14 8.00134 14Z" fill="#036CE7"/>
<circle cx="5.25" cy="8.25" r="0.749999" fill="white"/>
<circle cx="8.25" cy="8.25" r="0.749999" fill="white"/>
<circle cx="11.25" cy="8.25" r="0.749999" fill="white"/>
</svg>
