<svg width="16" height="16" viewBox="0 0 16 16" fill="none" xmlns="http://www.w3.org/2000/svg">
<rect x="2" y="2" width="12" height="12" rx="1" fill="#37383C"/>
<path fill-rule="evenodd" clip-rule="evenodd" d="M4 5C4 4.72386 4.13776 4.5 4.30769 4.5H11.6923C11.8622 4.5 12 4.72386 12 5C12 5.27614 11.8622 5.5 11.6923 5.5H4.30769C4.13776 5.5 4 5.27614 4 5ZM4 8C4 7.72386 4.13776 7.5 4.30769 7.5H11.6923C11.8622 7.5 12 7.72386 12 8C12 8.27614 11.8622 8.5 11.6923 8.5H4.30769C4.13776 8.5 4 8.27614 4 8ZM4.28571 10.5C4.12792 10.5 4 10.7239 4 11C4 11.2761 4.12792 11.5 4.28571 11.5H7.71429C7.87208 11.5 8 11.2761 8 11C8 10.7239 7.87208 10.5 7.71429 10.5H4.28571Z" fill="white"/>
</svg>
