<svg width="80" height="80" viewBox="0 0 80 80" fill="none" xmlns="http://www.w3.org/2000/svg">
<mask id="mask0_332_9356" style="mask-type:luminance" maskUnits="userSpaceOnUse" x="9" y="9" width="62" height="62">
<path d="M40 33.3333C41.5321 33.3333 43.0492 33.0316 44.4646 32.4453C45.8801 31.859 47.1662 30.9996 48.2496 29.9162C49.3329 28.8329 50.1923 27.5468 50.7786 26.1313C51.3649 24.7158 51.6667 23.1988 51.6667 21.6667C51.6667 20.1346 51.3649 18.6175 50.7786 17.202C50.1923 15.7866 49.3329 14.5004 48.2496 13.4171C47.1662 12.3337 45.8801 11.4744 44.4646 10.8881C43.0492 10.3018 41.5321 10 40 10C36.9058 10 33.9383 11.2292 31.7504 13.4171C29.5625 15.605 28.3333 18.5725 28.3333 21.6667C28.3333 24.7609 29.5625 27.7283 31.7504 29.9162C33.9383 32.1042 36.9058 33.3333 40 33.3333ZM10 68V70H70V68C70 60.5333 70 56.8 68.5467 53.9467C67.2684 51.4379 65.2287 49.3983 62.72 48.12C59.8667 46.6667 56.1333 46.6667 48.6667 46.6667H31.3333C23.8667 46.6667 20.1333 46.6667 17.28 48.12C14.7713 49.3983 12.7316 51.4379 11.4533 53.9467C10 56.8 10 60.5333 10 68Z" fill="white" stroke="white" stroke-width="2" stroke-linecap="round" stroke-linejoin="round"/>
</mask>
<g mask="url(#mask0_332_9356)">
<path d="M0 0H80V80H0V0Z" fill="#CDE2FA"/>
</g>
</svg>
