<svg width="80" height="80" viewBox="0 0 80 80" fill="none" xmlns="http://www.w3.org/2000/svg">
<g clip-path="url(#clip0_1024_14643)">
<path fill-rule="evenodd" clip-rule="evenodd" d="M20 26.667C20 21.3627 22.1071 16.2756 25.8579 12.5249C29.6086 8.77413 34.6957 6.66699 40 6.66699C45.3043 6.66699 50.3914 8.77413 54.1421 12.5249C57.8929 16.2756 60 21.3627 60 26.667H63.3333C65.1014 26.667 66.7971 27.3694 68.0474 28.6196C69.2976 29.8699 70 31.5655 70 33.3337V66.667C70 68.4351 69.2976 70.1308 68.0474 71.381C66.7971 72.6313 65.1014 73.3337 63.3333 73.3337H16.6667C14.8986 73.3337 13.2029 72.6313 11.9526 71.381C10.7024 70.1308 10 68.4351 10 66.667V33.3337C10 31.5655 10.7024 29.8699 11.9526 28.6196C13.2029 27.3694 14.8986 26.667 16.6667 26.667H20ZM40 13.3337C43.5362 13.3337 46.9276 14.7384 49.4281 17.2389C51.9286 19.7394 53.3333 23.1308 53.3333 26.667H26.6667C26.6667 23.1308 28.0714 19.7394 30.5719 17.2389C33.0724 14.7384 36.4638 13.3337 40 13.3337ZM46.6667 46.667C46.6666 47.8372 46.3586 48.9868 45.7735 50.0002C45.1883 51.0137 44.3468 51.8552 43.3333 52.4403V56.667C43.3333 57.551 42.9821 58.3989 42.357 59.024C41.7319 59.6491 40.8841 60.0003 40 60.0003C39.1159 60.0003 38.2681 59.6491 37.643 59.024C37.0179 58.3989 36.6667 57.551 36.6667 56.667V52.4403C35.3958 51.7065 34.4026 50.5739 33.841 49.2181C33.2795 47.8622 33.181 46.359 33.5608 44.9415C33.9406 43.524 34.7775 42.2714 35.9418 41.3781C37.106 40.4847 38.5325 40.0004 40 40.0003C41.7681 40.0003 43.4638 40.7027 44.714 41.9529C45.9643 43.2032 46.6667 44.8989 46.6667 46.667Z" fill="#CDE2FA"/>
</g>
<defs>
<clipPath id="clip0_1024_14643">
<rect width="80" height="80" fill="white"/>
</clipPath>
</defs>
</svg>
